<svg width="920" height="590" viewBox="0 0 920 590" fill="none" xmlns="http://www.w3.org/2000/svg">
<path d="M413.673 311.975H377.007V347.945H360.151V264.187H377.007V297.783H413.673V264.187H430.587V347.945H413.673V311.975ZM515.073 316.029C515.073 322.787 513.973 328.657 511.771 333.638C509.57 338.581 505.998 342.404 501.056 345.107C496.151 347.772 489.645 349.104 481.535 349.104C473.387 349.104 466.861 347.752 461.957 345.049C457.053 342.307 453.5 338.426 451.299 333.406C449.136 328.386 448.055 322.401 448.055 315.45V264.187H465.259V316.724C465.259 322.98 466.765 327.556 469.777 330.452C472.789 333.31 476.708 334.739 481.535 334.739C484.74 334.739 487.579 334.121 490.05 332.885C492.521 331.611 494.452 329.661 495.842 327.035C497.271 324.37 497.986 320.933 497.986 316.724V264.187H515.073V316.029ZM563.339 349.104C559.207 349.104 555.152 348.582 551.175 347.54C547.198 346.497 543.568 344.933 540.285 342.848C537.003 340.763 534.281 338.156 532.118 335.028C529.994 331.9 528.72 328.232 528.295 324.023H545.614C546.194 326.571 547.294 328.715 548.916 330.452C550.538 332.19 552.585 333.522 555.056 334.449C557.527 335.376 560.269 335.839 563.281 335.839C566.37 335.839 569.189 335.453 571.738 334.681C574.287 333.908 576.333 332.75 577.878 331.205C579.423 329.622 580.195 327.653 580.195 325.297C580.195 323.173 579.558 321.435 578.283 320.084C577.048 318.732 575.368 317.632 573.244 316.782C571.12 315.933 568.707 315.238 566.004 314.697L551.523 311.743C545.19 310.546 540.169 308.036 536.462 304.213C532.755 300.351 530.844 295.215 530.728 288.805C530.689 283.553 532.079 279.016 534.898 275.193C537.756 271.331 541.618 268.358 546.483 266.273C551.387 264.187 556.871 263.145 562.934 263.145C570.155 263.145 576.217 264.284 581.122 266.562C586.064 268.802 589.81 271.853 592.359 275.714C594.946 279.537 596.278 283.804 596.356 288.515H579.384C579.075 285.581 578.187 283.244 576.719 281.507C575.252 279.769 573.36 278.514 571.043 277.742C568.765 276.969 566.158 276.583 563.223 276.583C560.983 276.583 558.937 276.834 557.083 277.336C555.268 277.838 553.724 278.553 552.449 279.479C551.175 280.367 550.19 281.429 549.495 282.665C548.8 283.901 548.453 285.291 548.453 286.836C548.453 289.268 549.264 291.238 550.885 292.744C552.507 294.25 555.539 295.486 559.979 296.451L574.345 299.405C579.48 300.409 583.554 301.896 586.566 303.865C589.617 305.835 591.895 308.055 593.402 310.527C594.946 312.998 595.95 315.527 596.414 318.115C596.916 320.663 597.167 323.019 597.167 325.181C597.167 329.699 595.738 333.773 592.88 337.403C590.061 340.994 586.122 343.852 581.064 345.976C576.005 348.061 570.097 349.104 563.339 349.104ZM665.619 311.975H628.953V347.945H612.097V264.187H628.953V297.783H665.619V264.187H682.533V347.945H665.619V311.975ZM360.151 450.945V367.187H390.967C397.068 367.187 402.532 368.249 407.359 370.373C412.186 372.459 415.99 375.548 418.77 379.641C421.589 383.734 422.999 388.735 422.999 394.643C422.999 400.204 421.763 404.954 419.291 408.893C416.82 412.831 413.345 415.843 408.865 417.929C404.424 420.014 399.192 421.057 393.168 421.057H377.181V450.945H360.151ZM377.007 407.966H392.704C396.952 407.966 400.428 406.614 403.131 403.911C405.834 401.169 407.185 397.791 407.185 393.774C407.185 389.604 405.757 386.302 402.899 383.869C400.041 381.398 396.566 380.162 392.473 380.162H377.007V407.966ZM433.581 450.945V391.052H449.857V405.243C450.823 402.193 452.174 399.528 453.912 397.25C455.688 394.933 457.831 393.137 460.341 391.863C462.851 390.55 465.69 389.894 468.856 389.894C469.397 389.894 469.899 389.932 470.362 390.009C470.864 390.048 471.231 390.125 471.463 390.241V406.344C471.115 406.189 470.69 406.093 470.188 406.054C469.725 406.016 469.3 405.977 468.914 405.938C465.593 405.668 462.755 405.765 460.399 406.228C458.044 406.691 456.132 407.483 454.665 408.603C453.197 409.723 452.136 411.094 451.479 412.716C450.823 414.337 450.494 416.152 450.494 418.16V450.945H433.581ZM506.136 452.104C500.266 452.104 495.149 450.849 490.786 448.339C486.461 445.829 483.101 442.276 480.707 437.681C478.351 433.085 477.174 427.641 477.174 421.346C477.174 415.052 478.351 409.549 480.707 404.838C483.101 400.127 486.461 396.458 490.786 393.832C495.149 391.207 500.285 389.894 506.194 389.894C512.102 389.894 517.218 391.187 521.543 393.774C525.868 396.323 529.209 399.953 531.564 404.664C533.92 409.375 535.098 414.936 535.098 421.346C535.098 427.37 533.939 432.699 531.622 437.333C529.344 441.929 526.042 445.539 521.717 448.165C517.431 450.791 512.237 452.104 506.136 452.104ZM506.194 439.534C509.167 439.534 511.561 438.665 513.376 436.928C515.191 435.19 516.504 432.912 517.315 430.093C518.164 427.235 518.589 424.127 518.589 420.767C518.589 417.6 518.203 414.608 517.431 411.789C516.697 408.97 515.423 406.691 513.608 404.954C511.793 403.216 509.321 402.347 506.194 402.347C503.22 402.347 500.807 403.177 498.953 404.838C497.138 406.46 495.806 408.68 494.956 411.499C494.107 414.28 493.682 417.369 493.682 420.767C493.682 423.895 494.068 426.907 494.84 429.803C495.613 432.661 496.906 434.997 498.721 436.812C500.536 438.627 503.027 439.534 506.194 439.534ZM580.942 402.811H567.62L567.736 434.727C567.736 436.194 567.91 437.295 568.257 438.028C568.643 438.723 569.223 439.187 569.995 439.418C570.806 439.612 571.829 439.708 573.065 439.708H581.116V450.134C580.344 450.482 579.128 450.81 577.467 451.119C575.845 451.428 573.567 451.582 570.632 451.582C565.38 451.582 561.306 450.907 558.41 449.555C555.552 448.204 553.564 446.311 552.444 443.879C551.324 441.446 550.764 438.627 550.764 435.422V402.811H541.033V391.052H551.343L555.572 372.98H567.62V390.994H580.942V402.811ZM617.232 452.104C611.362 452.104 606.246 450.849 601.882 448.339C597.557 445.829 594.197 442.276 591.803 437.681C589.448 433.085 588.27 427.641 588.27 421.346C588.27 415.052 589.448 409.549 591.803 404.838C594.197 400.127 597.557 396.458 601.882 393.832C606.246 391.207 611.381 389.894 617.29 389.894C623.198 389.894 628.315 391.187 632.639 393.774C636.964 396.323 640.305 399.953 642.66 404.664C645.016 409.375 646.194 414.936 646.194 421.346C646.194 427.37 645.035 432.699 642.718 437.333C640.44 441.929 637.138 445.539 632.813 448.165C628.527 450.791 623.333 452.104 617.232 452.104ZM617.29 439.534C620.263 439.534 622.657 438.665 624.472 436.928C626.287 435.19 627.6 432.912 628.411 430.093C629.261 427.235 629.685 424.127 629.685 420.767C629.685 417.6 629.299 414.608 628.527 411.789C627.793 408.97 626.519 406.691 624.704 404.954C622.889 403.216 620.418 402.347 617.29 402.347C614.316 402.347 611.903 403.177 610.049 404.838C608.234 406.46 606.902 408.68 606.052 411.499C605.203 414.28 604.778 417.369 604.778 420.767C604.778 423.895 605.164 426.907 605.937 429.803C606.709 432.661 608.003 434.997 609.817 436.812C611.632 438.627 614.123 439.534 617.29 439.534ZM683.13 389.894C688.15 389.894 692.475 390.917 696.105 392.964C699.774 395.01 702.65 397.771 704.736 401.247C706.86 404.722 708.076 408.603 708.385 412.889H694.309C694.039 411.306 693.479 409.742 692.63 408.198C691.78 406.614 690.583 405.321 689.038 404.317C687.494 403.274 685.563 402.753 683.246 402.753C679.307 402.753 676.102 404.278 673.631 407.329C671.198 410.341 669.981 414.936 669.981 421.115C669.981 426.946 671.178 431.579 673.573 435.016C675.967 438.414 679.307 440.114 683.593 440.114C685.872 440.114 687.764 439.554 689.27 438.434C690.815 437.314 692.012 435.982 692.861 434.437C693.711 432.854 694.251 431.386 694.483 430.035H708.211C707.941 434.167 706.744 437.912 704.62 441.272C702.496 444.593 699.6 447.238 695.931 449.208C692.301 451.138 688.034 452.104 683.13 452.104C677.569 452.104 672.607 450.868 668.244 448.397C663.88 445.925 660.443 442.392 657.933 437.797C655.462 433.163 654.226 427.641 654.226 421.23C654.226 415.052 655.423 409.607 657.817 404.896C660.212 400.185 663.571 396.516 667.896 393.89C672.26 391.226 677.338 389.894 683.13 389.894ZM745.75 452.104C739.881 452.104 734.764 450.849 730.4 448.339C726.075 445.829 722.716 442.276 720.322 437.681C717.966 433.085 716.788 427.641 716.788 421.346C716.788 415.052 717.966 409.549 720.322 404.838C722.716 400.127 726.075 396.458 730.4 393.832C734.764 391.207 739.9 389.894 745.808 389.894C751.716 389.894 756.833 391.187 761.158 393.774C765.483 396.323 768.823 399.953 771.179 404.664C773.534 409.375 774.712 414.936 774.712 421.346C774.712 427.37 773.554 432.699 771.237 437.333C768.958 441.929 765.657 445.539 761.332 448.165C757.045 450.791 751.852 452.104 745.75 452.104ZM745.808 439.534C748.782 439.534 751.176 438.665 752.991 436.928C754.806 435.19 756.119 432.912 756.93 430.093C757.779 427.235 758.204 424.127 758.204 420.767C758.204 417.6 757.818 414.608 757.045 411.789C756.312 408.97 755.037 406.691 753.222 404.954C751.407 403.216 748.936 402.347 745.808 402.347C742.835 402.347 740.421 403.177 738.568 404.838C736.753 406.46 735.421 408.68 734.571 411.499C733.721 414.28 733.297 417.369 733.297 420.767C733.297 423.895 733.683 426.907 734.455 429.803C735.227 432.661 736.521 434.997 738.336 436.812C740.151 438.627 742.642 439.534 745.808 439.534ZM805.103 451.988C800.701 451.988 797.206 451.467 794.619 450.424C792.032 449.381 790.12 448.011 788.885 446.311C787.649 444.574 786.857 442.662 786.51 440.577C786.162 438.453 785.988 436.31 785.988 434.147V364.87H802.555V432.062C802.555 434.263 803.018 436.059 803.945 437.449C804.91 438.801 806.706 439.631 809.332 439.94L812.17 440.114V450.54C811.011 450.926 809.834 451.254 808.637 451.525C807.439 451.833 806.262 451.988 805.103 451.988Z" fill="white"/>
<path d="M101 224.098L161.374 274.5V452.179H101V224.098Z" fill="white"/>
<path d="M259.765 331.43C290.591 314.396 304.346 299.005 320.139 259.875V452.179H259.765V331.43Z" fill="white"/>
<path fill-rule="evenodd" clip-rule="evenodd" d="M210.568 338.137C271.081 338.137 320.137 289.081 320.137 228.568C320.137 168.055 271.081 119 210.568 119C150.055 119 101 168.055 101 228.568C101 289.081 150.055 338.137 210.568 338.137ZM210.57 288.945C242.679 288.945 268.709 262.915 268.709 230.806C268.709 198.697 242.679 172.668 210.57 172.668C178.461 172.668 152.432 198.697 152.432 230.806C152.432 262.915 178.461 288.945 210.57 288.945Z" fill="white"/>
<path d="M201.051 247.658L205.666 227.273H216.435L221.051 247.658H201.051Z" fill="white"/>
<circle cx="211.051" cy="223.426" r="9.23077" fill="white"/>
</svg>
